<?xml version="1.0" standalone="no"?>
<!DOCTYPE svg PUBLIC "-//W3C//DTD SVG 20010904//EN"
 "http://www.w3.org/TR/2001/REC-SVG-20010904/DTD/svg10.dtd">
<svg version="1.0" xmlns="http://www.w3.org/2000/svg"
 width="4500.000000pt" height="4500.000000pt" viewBox="0 0 4500.000000 4500.000000"
 preserveAspectRatio="xMidYMid meet">

<g transform="translate(0.000000,4500.000000) scale(0.100000,-0.100000)"
fill="#000000" stroke="none">
<path d="M23375 30076 c-286 -62 -528 -115 -538 -119 -16 -6 -17 -53 -17 -762
l0 -755 -490 0 -490 0 0 -475 0 -475 485 0 484 0 4 -1417 c4 -1497 3 -1475 52
-1719 35 -172 84 -317 164 -479 88 -178 169 -293 301 -425 215 -215 462 -350
795 -435 253 -65 382 -79 725 -80 307 0 411 8 591 48 l54 12 3 494 c2 454 1
493 -14 487 -106 -41 -523 -54 -709 -22 -266 45 -476 130 -607 246 -102 89
-187 257 -225 443 -15 74 -17 222 -20 1465 l-4 1382 881 0 880 0 0 475 0 475
-885 0 -885 0 0 875 c0 481 -3 874 -7 874 -5 -1 -242 -52 -528 -113z"/>
<path d="M5900 28550 c-557 -31 -1088 -221 -1529 -549 -156 -116 -434 -392
-540 -536 -312 -425 -491 -875 -552 -1390 -19 -160 -16 -539 5 -700 76 -567
299 -1074 657 -1490 454 -529 1088 -857 1819 -941 199 -22 575 -15 774 16 849
130 1538 587 1950 1293 120 205 247 529 281 720 l7 37 -574 0 -575 0 -53 -105
c-246 -488 -640 -806 -1137 -917 -86 -19 -128 -22 -343 -22 -217 -1 -256 2
-346 21 -366 81 -703 282 -931 556 -311 373 -465 862 -425 1345 19 227 58 388
138 579 294 702 967 1119 1703 1054 229 -21 393 -63 581 -152 330 -157 590
-412 763 -750 l53 -104 562 -3 c510 -2 562 -1 562 14 0 44 -46 234 -85 351
-272 818 -1137 1479 -2148 1643 -104 17 -420 43 -467 38 -8 0 -76 -4 -150 -8z"/>
<path d="M12154 28550 c-1139 -68 -2041 -757 -2387 -1825 -221 -683 -188
-1502 89 -2162 267 -637 731 -1119 1348 -1397 227 -102 464 -170 736 -213 164
-26 671 -25 845 0 444 66 763 194 1082 433 95 72 265 234 335 320 28 35 53 63
54 61 2 -2 21 -149 44 -327 22 -179 43 -342 46 -363 l6 -37 511 2 512 3 3
2698 2 2697 -527 -2 -528 -3 -31 -335 c-18 -184 -33 -348 -35 -363 -4 -27 -5
-27 -47 27 -64 80 -255 262 -350 335 -337 255 -726 400 -1187 440 -169 15
-376 19 -521 11z m516 -1011 c480 -49 914 -283 1195 -644 193 -247 313 -530
360 -850 22 -145 22 -414 0 -560 -91 -611 -441 -1102 -978 -1372 -398 -199
-902 -237 -1324 -98 -114 37 -324 145 -432 223 -514 366 -799 1017 -742 1692
89 1039 895 1715 1921 1609z"/>
<path d="M32335 28553 c-446 -19 -938 -188 -1270 -436 -89 -66 -221 -192 -287
-274 -29 -35 -55 -60 -59 -56 -5 7 -89 606 -89 641 0 9 -104 12 -485 12 l-485
0 0 -2700 0 -2700 555 0 c436 0 556 3 559 13 3 6 9 715 15 1574 7 945 16 1597
22 1650 66 551 443 992 984 1148 146 42 250 57 432 62 446 14 768 -95 1026
-346 200 -195 309 -423 364 -763 15 -92 17 -277 20 -1720 l4 -1618 550 0 549
0 0 1738 c0 1863 0 1843 -51 2096 -210 1037 -986 1645 -2144 1678 -77 3 -171
3 -210 1z"/>
<path d="M38530 28550 c-767 -43 -1472 -394 -1927 -960 -326 -405 -526 -894
-587 -1430 -58 -513 -4 -1013 159 -1465 66 -183 188 -427 293 -585 417 -628
1066 -1035 1842 -1157 181 -28 673 -25 869 5 421 66 743 201 1072 448 98 75
263 229 338 319 l43 50 -5 -305 c-6 -324 -17 -429 -63 -615 -70 -275 -192
-494 -384 -685 -307 -307 -683 -460 -1170 -477 -378 -13 -709 56 -1015 212
-307 157 -521 387 -649 698 l-15 37 -571 0 -570 0 6 -27 c25 -112 125 -379
193 -518 314 -636 847 -1072 1561 -1279 613 -177 1361 -175 1973 4 685 201
1204 634 1512 1265 155 317 240 624 296 1065 9 71 13 746 16 2693 l4 2597
-493 -2 -493 -3 -66 -350 c-36 -192 -67 -356 -70 -362 -2 -7 -26 14 -54 48
-226 274 -623 541 -976 657 -298 97 -698 142 -1069 122z m654 -1029 c375 -66
741 -269 987 -547 625 -705 585 -1859 -87 -2528 -374 -372 -875 -555 -1394
-507 -309 29 -549 114 -811 289 -393 264 -663 711 -745 1237 -23 150 -23 451
0 599 80 506 342 941 721 1195 231 154 480 245 775 281 124 15 418 5 554 -19z"/>
<path d="M18570 28524 c-533 -64 -947 -228 -1263 -499 -146 -126 -307 -335
-381 -496 -89 -193 -125 -354 -133 -601 -12 -361 53 -607 217 -828 178 -238
432 -414 766 -530 194 -67 577 -154 993 -226 235 -40 433 -82 571 -120 238
-67 453 -180 544 -287 133 -156 161 -385 70 -577 -28 -59 -53 -93 -123 -161
-79 -78 -102 -94 -212 -148 -530 -259 -1242 -156 -1620 236 -139 144 -231 319
-260 490 -6 37 -13 78 -15 91 l-4 22 -521 0 c-464 0 -520 -2 -526 -16 -10 -27
17 -304 42 -430 144 -713 687 -1245 1475 -1444 221 -56 344 -72 612 -77 330
-7 529 14 823 86 451 111 807 308 1090 603 315 327 454 673 455 1128 0 415
-100 665 -366 920 -161 153 -308 245 -554 343 -247 99 -346 124 -990 252 -657
130 -855 182 -1044 277 -207 103 -301 208 -325 359 -21 134 22 267 123 377
127 136 289 220 534 274 81 18 131 22 302 22 180 1 218 -2 309 -22 280 -63
525 -200 662 -370 98 -122 150 -243 185 -429 l4 -23 530 0 530 0 0 35 c0 64
-21 228 -42 329 -91 444 -387 855 -799 1111 -276 171 -623 286 -994 330 -161
19 -505 18 -665 -1z"/>
<path d="M26840 22955 l0 -5485 560 0 560 0 0 5485 0 5485 -560 0 -560 0 0
-5485z"/>
<path d="M22636 20039 c-313 -32 -587 -158 -777 -356 -111 -116 -182 -235
-237 -398 -64 -191 -82 -342 -82 -677 l0 -248 -342 -2 -343 -3 -3 -312 -2
-313 342 0 343 0 -2 -417 c-2 -230 -4 -869 -5 -1421 l-3 -1002 361 0 360 0 -4
1420 -5 1420 879 0 879 0 -3 -897 c-1 -494 -3 -1133 -5 -1421 l-2 -522 362 0
361 0 -6 1420 -5 1420 491 0 492 0 0 315 0 315 -491 0 -491 0 5 268 c5 295 12
344 70 461 47 97 125 170 239 225 112 54 207 76 353 83 98 5 259 -8 300 -23
13 -5 15 35 15 309 0 174 -4 318 -9 321 -32 20 -224 39 -391 39 -398 1 -687
-102 -928 -328 -169 -158 -270 -360 -323 -640 -18 -91 -22 -161 -26 -412 l-5
-303 -880 0 -880 0 5 273 c3 217 8 284 21 332 50 173 134 275 288 349 112 54
207 76 353 83 98 5 259 -8 300 -23 13 -5 15 35 15 309 0 174 -4 318 -9 321 -4
3 -50 12 -102 21 -119 19 -357 27 -473 14z"/>
<path d="M11903 19945 c-257 -70 -392 -331 -304 -587 65 -190 233 -297 445
-285 148 8 258 65 336 175 95 132 107 331 30 481 -30 61 -110 142 -168 174
-97 53 -235 70 -339 42z"/>
<path d="M31485 18913 c-137 -12 -297 -55 -455 -120 -197 -81 -373 -211 -501
-369 -29 -35 -55 -64 -59 -64 -3 0 -23 87 -44 193 -20 105 -42 213 -48 240
l-10 47 -354 0 -354 0 0 -1960 0 -1960 405 0 404 0 4 1193 c3 1064 5 1199 20
1257 53 211 136 358 278 496 168 162 373 249 646 275 304 28 561 -48 746 -221
153 -142 246 -341 276 -590 7 -55 11 -494 11 -1247 l0 -1163 410 0 409 0 4
1208 3 1207 22 85 c29 107 96 246 160 330 233 307 678 458 1101 373 307 -61
525 -264 625 -581 55 -174 56 -210 56 -1468 l0 -1154 405 0 405 0 0 1273 c0
827 -4 1302 -10 1357 -35 279 -126 541 -260 743 -67 101 -202 242 -309 323
-99 75 -286 170 -416 213 -332 110 -755 119 -1080 24 -210 -61 -412 -159 -564
-274 -91 -68 -236 -216 -310 -316 l-53 -72 -57 87 c-245 372 -619 582 -1125
631 -103 10 -291 12 -381 4z"/>
<path d="M38755 18914 c-16 -2 -72 -9 -124 -15 -366 -42 -748 -213 -1027 -457
-277 -243 -493 -608 -588 -992 -47 -192 -60 -316 -60 -555 0 -370 59 -653 199
-952 348 -745 1099 -1170 1948 -1104 161 13 259 28 383 60 270 69 536 228 738
442 53 56 96 96 96 88 0 -8 14 -120 30 -249 16 -129 30 -241 30 -247 0 -10 82
-13 375 -13 l375 0 -2 1958 -3 1957 -380 0 -380 0 -22 -230 c-12 -126 -22
-244 -22 -262 -1 -31 -5 -28 -128 96 -290 289 -603 430 -1048 471 -103 9 -323
11 -390 4z m422 -735 c428 -47 789 -293 981 -666 154 -300 189 -636 102 -981
-33 -130 -109 -296 -190 -418 -65 -97 -219 -251 -320 -320 -148 -102 -306
-170 -472 -205 -133 -28 -370 -31 -499 -6 -517 101 -907 524 -996 1082 -19
123 -13 422 12 529 152 670 701 1061 1382 985z"/>
<path d="M8761 18419 c-295 -31 -585 -137 -841 -306 -87 -58 -148 -110 -250
-212 -162 -163 -246 -278 -339 -466 -132 -266 -191 -518 -191 -817 0 -814 521
-1508 1302 -1733 209 -60 487 -86 705 -66 342 31 619 127 893 308 156 103 365
312 469 467 212 319 311 642 311 1021 0 311 -59 565 -193 830 -341 678 -1068
1057 -1866 974z m514 -703 c196 -51 378 -158 519 -307 135 -141 222 -300 272
-497 31 -120 42 -325 25 -455 -66 -492 -432 -874 -912 -952 -735 -119 -1350
428 -1316 1170 8 182 42 317 117 468 156 312 441 526 787 592 126 24 381 14
508 -19z"/>
<path d="M18405 18419 c-119 -12 -276 -46 -395 -85 -140 -47 -363 -159 -480
-242 -110 -78 -314 -276 -388 -377 -355 -483 -454 -1094 -270 -1670 41 -130
161 -366 245 -485 85 -119 281 -317 393 -397 489 -349 1130 -445 1718 -257
137 44 358 152 467 228 450 315 728 810 764 1356 71 1086 -758 1951 -1858
1939 -64 -1 -152 -5 -196 -10z m421 -684 c431 -74 765 -382 881 -812 25 -91
27 -113 27 -303 0 -190 -2 -212 -27 -303 -65 -243 -209 -459 -403 -607 -95
-72 -268 -155 -389 -186 -253 -65 -579 -33 -800 78 -306 154 -524 444 -592
785 -23 119 -23 347 0 466 90 455 437 800 884 881 106 19 310 20 419 1z"/>
<path d="M3262 18338 c4 -18 1154 -2958 1315 -3360 l35 -88 427 0 427 0 682
1729 c375 950 682 1731 682 1735 0 3 -173 6 -384 6 l-383 0 -125 -337 c-68
-186 -297 -807 -509 -1380 -211 -573 -386 -1039 -388 -1037 -2 2 -232 622
-511 1376 l-506 1373 -383 3 -383 2 4 -22z"/>
<path d="M11657 18353 c-4 -3 -7 -784 -7 -1735 l0 -1728 360 0 360 0 0 1735 0
1735 -353 0 c-195 0 -357 -3 -360 -7z"/>
<path d="M13057 18346 c4 -8 287 -388 628 -846 341 -457 620 -839 619 -848 0
-9 -289 -410 -642 -889 l-641 -873 413 0 412 0 464 644 463 645 460 -645 461
-644 408 0 c224 0 408 2 408 5 0 3 -290 400 -644 882 l-644 876 172 231 c95
127 378 507 629 843 251 337 457 617 457 623 0 7 -137 9 -407 8 l-407 -3 -440
-602 c-243 -332 -445 -604 -451 -605 -5 -2 -211 269 -456 602 l-446 605 -412
3 c-353 2 -411 0 -404 -12z"/>
<path d="M26915 16133 c-35 -9 -87 -54 -101 -89 -11 -27 -14 -128 -14 -532 0
-497 0 -498 23 -542 42 -83 21 -80 608 -80 l516 0 34 23 c70 47 69 33 69 603
l0 511 -22 33 c-13 18 -36 43 -51 54 -28 21 -38 21 -535 23 -279 0 -516 -1
-527 -4z"/>
</g>
</svg>
